<svg xmlns="http://www.w3.org/2000/svg" version="1.1" id="Layer_1" x="0px" y="0px" viewBox="0 0 100 100"
     enable-background="new 0 0 100 100" xml:space="preserve">
<path display="none" fill="#FF7BAC"
      d="M85,95H15C9.5,95,5,90.5,5,85V15C5,9.5,9.5,5,15,5h70c5.5,0,10,4.5,10,10v70  C95,90.5,90.5,95,85,95z"/>
    <polygon display="none" fill="#FF0000" points="26,95 11.4,49.8 49.7,21.8 88,49.8 73.3,95 "/>
    <path fill="#000"
          d="M94.4,21.9L56.9,86.8c-3.1,5.3-10.8,5.3-13.9,0L5.6,21.9c-3.1-5.3,0.8-12,6.9-12h74.9  C93.6,9.9,97.5,16.5,94.4,21.9z"/>
</svg>